<svg t="1753146194215" class="icon" viewBox="0 0 1024 1024" version="1.1" xmlns="http://www.w3.org/2000/svg" p-id="5187" xmlns:xlink="http://www.w3.org/1999/xlink" width="200" height="200">
  <defs>
    <linearGradient id="color-gradient" x1="0%" y1="0%" x2="100%" y2="100%">
      <stop offset="25.9%" stop-color="#FFDB6E"/>
      <stop offset="100%" stop-color="#FFBC5E"/>
    </linearGradient>
  </defs>
  <path d="M296.96 25.6H102.4C61.44 25.6 25.6 56.32 25.6 102.4v122.88c0 40.96 35.84 76.8 76.8 76.8h194.56c40.96 0 76.8-35.84 76.8-76.8V102.4c0-40.96-35.84-76.8-76.8-76.8z m-10.24 189.44H112.64v-102.4h174.08v102.4z" fill="url(#color-gradient)" p-id="5188"></path>
  <path d="M921.6 721.92h-194.56c-40.96 0-76.8 35.84-76.8 76.8V921.6c0 40.96 35.84 76.8 76.8 76.8H921.6c40.96 0 76.8-30.72 76.8-76.8v-122.88c0-46.08-35.84-76.8-76.8-76.8z m-10.24 189.44h-174.08v-102.4h174.08v102.4zM921.6 373.76h-194.56c-40.96 0-76.8 35.84-76.8 76.8v128c0 40.96 35.84 76.8 76.8 76.8H921.6c40.96 0 76.8-35.84 76.8-76.8V450.56c0-40.96-35.84-76.8-76.8-76.8z m-10.24 189.44h-174.08V460.8h174.08v102.4zM537.6 501.76H240.64V414.72c0-25.6-20.48-40.96-40.96-40.96s-46.08 20.48-46.08 40.96v471.04c0 25.6 20.48 46.08 40.96 46.08h337.92c25.6 5.12 46.08-15.36 46.08-40.96 5.12-25.6-15.36-46.08-40.96-46.08H240.64v-250.88h296.96c25.6 0 40.96-20.48 40.96-46.08 5.12-25.6-15.36-46.08-40.96-46.08z" fill="url(#color-gradient)" p-id="5189"></path>
</svg>