<svg t="1753202925903" class="icon" viewBox="0 0 1024 1024" version="1.1" xmlns="http://www.w3.org/2000/svg" p-id="14329" width="200" height="200">
  <defs>
    <linearGradient id="paint0_linear_gradient" x1="78.1818" y1="0" x2="1451.34" y2="442.5" gradientUnits="userSpaceOnUse">
      <stop offset="0.259336" stop-color="#FFDB6E"/>
      <stop offset="1" stop-color="#FFBC5E"/>
    </linearGradient>
  </defs>
  <path d="M123.7 925.6c-7.7 0-14.9-3.4-19.8-9.5-4.9-6-6.8-13.8-5.2-21.3l49.1-236c2.1-9.9 6.9-18.8 14-25.9l530.6-530.6c19.4-19.4 53.2-19.4 72.6 0l156.5 156.5c9.7 9.7 15.1 22.6 15.1 36.3 0 13.7-5.4 26.6-15.1 36.3L390.9 862c-7.1 7.1-16.1 11.9-25.9 14l-236 49.1c-1.8 0.4-3.6 0.5-5.3 0.5z m605-805.6c-4.9 0-9.6 1.9-13.1 5.4L185 656.1c-2.6 2.6-4.3 5.8-5.1 9.4L133 890.7l225.3-46.8c3.6-0.7 6.8-2.5 9.4-5.1l530.7-530.7c3.5-3.5 5.4-8.2 5.4-13.1 0-5-1.9-9.6-5.4-13.1L741.8 125.4c-3.5-3.5-8.1-5.4-13.1-5.4z" fill="url(#paint0_linear_gradient)" p-id="14330"></path>
  <path d="M832.7 413.4c-4.2 0-8.4-1.6-11.6-4.8L615.2 202.7c-6.4-6.4-6.4-16.8 0-23.2 6.4-6.4 16.8-6.4 23.2 0l205.9 205.9c6.4 6.4 6.4 16.8 0 23.2-3.2 3.2-7.4 4.8-11.6 4.8zM744.9 945.5c-12.6 0-25.2-4.8-34.8-14.4L505 726c-6.4-6.4-6.4-16.8 0-23.2 6.4-6.4 16.8-6.4 23.2 0L733.3 908c6.4 6.4 16.8 6.4 23.2 0l151.7-151.7c3.1-3.1 4.8-7.2 4.8-11.6s-1.7-8.5-4.8-11.6L704.1 529c-6.4-6.4-6.4-16.8 0-23.2 6.4-6.4 16.8-6.4 23.2 0l204.1 204.1c9.3 9.3 14.4 21.6 14.4 34.8 0 13.1-5.1 25.5-14.4 34.8L779.7 931.2c-9.6 9.5-22.2 14.3-34.8 14.3zM308.9 523.1c-4.2 0-8.4-1.6-11.6-4.8L92.6 313.7c-9.3-9.3-14.4-21.6-14.4-34.8 0-13.2 5.1-25.5 14.4-34.8L244.3 92.4c18.6-18.6 51-18.6 69.6 0l205.2 205.2c6.4 6.4 6.4 16.8 0 23.2-6.4 6.4-16.8 6.4-23.2 0L290.7 115.6c-6.2-6.2-16.9-6.2-23.2 0L115.8 267.3c-6.4 6.4-6.4 16.8 0 23.2l204.7 204.7c6.4 6.4 6.4 16.8 0 23.2-3.2 3.1-7.4 4.7-11.6 4.7z" fill="url(#paint0_linear_gradient)" p-id="14331"></path>
  <path d="M176.4 390.7c-4.2 0-8.4-1.6-11.6-4.8-6.4-6.4-6.4-16.8 0-23.2l96.9-96.9c6.4-6.4 16.8-6.4 23.2 0 6.4 6.4 6.4 16.8 0 23.2L188 385.9c-3.2 3.2-7.4 4.8-11.6 4.8zM271.9 486.1c-4.2 0-8.4-1.6-11.6-4.8-6.4-6.4-6.4-16.8 0-23.2l96.9-96.9c6.4-6.4 16.8-6.4 23.2 0 6.4 6.4 6.4 16.8 0 23.2l-96.9 96.9c-3.3 3.2-7.5 4.8-11.6 4.8zM558.1 772.3c-4.2 0-8.4-1.6-11.6-4.8-6.4-6.4-6.4-16.8 0-23.2l96.9-96.9c6.4-6.4 16.8-6.4 23.2 0 6.4 6.4 6.4 16.8 0 23.2l-96.9 96.9c-3.2 3.2-7.4 4.8-11.6 4.8z" fill="url(#paint0_linear_gradient)" p-id="14332"></path>
  <path d="M653.5 867.8c-4.2 0-8.4-1.6-11.6-4.8-6.4-6.4-6.4-16.8 0-23.2l96.8-96.9c6.4-6.4 16.8-6.4 23.2 0 6.4 6.4 6.4 16.8 0 23.2L665.1 863c-3.2 3.2-7.4 4.8-11.6 4.8z" fill="url(#paint0_linear_gradient)" p-id="14333"></path>
</svg>